<svg width="121" height="41" viewBox="0 0 121 41" fill="none" xmlns="http://www.w3.org/2000/svg">
<g id="Group">
<g id="Group_2">
<g id="Group_3">
<path id="Vector" d="M110.803 0.631966H10.2026C9.83595 0.631966 9.47365 0.631966 9.10792 0.633966C8.80177 0.635966 8.49806 0.641776 8.18897 0.646666C7.51748 0.654568 6.84758 0.713642 6.18507 0.823376C5.52349 0.935499 4.88264 1.14688 4.28419 1.45038C3.68647 1.75644 3.14031 2.15413 2.66554 2.62904C2.18827 3.1026 1.79043 3.64998 1.48732 4.25013C1.18337 4.84908 0.972609 5.4909 0.862319 6.15345C0.75098 6.81515 0.691067 7.48449 0.683119 8.15545C0.673839 8.46205 0.672859 8.76967 0.667969 9.07631V32.1906C0.672859 32.5011 0.673839 32.8019 0.683119 33.1125C0.69107 33.7834 0.750982 34.4527 0.862319 35.1144C0.972305 35.7773 1.18308 36.4195 1.48732 37.0187C1.79029 37.6169 2.18819 38.162 2.66554 38.633C3.13851 39.11 3.68502 39.5079 4.28419 39.8117C4.88264 40.116 5.52342 40.3286 6.18507 40.4425C6.84769 40.5513 7.51753 40.6104 8.18897 40.6193C8.49806 40.6261 8.80177 40.63 9.10792 40.63C9.47364 40.632 9.83597 40.632 10.2026 40.632H110.803C111.162 40.632 111.527 40.632 111.887 40.63C112.191 40.63 112.504 40.6261 112.809 40.6193C113.479 40.6109 114.147 40.5518 114.809 40.4425C115.472 40.3278 116.115 40.1152 116.717 39.8117C117.315 39.5078 117.861 39.1098 118.334 38.633C118.81 38.1602 119.209 37.6154 119.516 37.0187C119.818 36.4191 120.026 35.7769 120.135 35.1144C120.246 34.4526 120.308 33.7834 120.32 33.1125C120.324 32.8019 120.324 32.5011 120.324 32.1906C120.332 31.8273 120.332 31.466 120.332 31.0968V10.1681C120.332 9.80189 120.332 9.43861 120.324 9.07631C120.324 8.76967 120.324 8.46205 120.32 8.15541C120.308 7.48439 120.246 6.8152 120.135 6.15341C120.026 5.49125 119.817 4.84947 119.516 4.25009C118.898 3.04716 117.92 2.06799 116.717 1.45029C116.115 1.14753 115.472 0.936206 114.809 0.823286C114.148 0.713069 113.479 0.653974 112.809 0.646526C112.504 0.641646 112.191 0.635786 111.887 0.633836C111.527 0.631836 111.162 0.631836 110.803 0.631836V0.631966Z" fill="#A6A6A6"/>
<path id="Vector_2" d="M9.11284 39.7568C8.80816 39.7568 8.51084 39.7529 8.20855 39.7461C7.58233 39.738 6.95757 39.6835 6.33941 39.583C5.763 39.4838 5.20461 39.2991 4.68267 39.0351C4.16551 38.7734 3.69382 38.4301 3.28567 38.0185C2.87161 37.6118 2.52688 37.1401 2.26516 36.622C2.00054 36.1006 1.81742 35.5417 1.72216 34.9648C1.61928 34.345 1.56362 33.7181 1.55566 33.0898C1.54932 32.8789 1.54102 32.1767 1.54102 32.1767V9.07618C1.54102 9.07618 1.54986 8.38477 1.55571 8.18164C1.56333 7.55432 1.61867 6.92849 1.72124 6.30957C1.81667 5.73109 1.99994 5.17058 2.2647 4.64747C2.52546 4.12978 2.86827 3.6577 3.27984 3.24952C3.69094 2.83746 4.16414 2.49244 4.68218 2.22705C5.20292 1.96393 5.76025 1.78057 6.3355 1.68311C6.95569 1.58167 7.58262 1.52683 8.21101 1.51905L9.11333 1.50684H111.882L112.795 1.51954C113.418 1.52694 114.039 1.58129 114.653 1.68213C115.234 1.78081 115.798 1.96545 116.324 2.22998C117.362 2.76482 118.207 3.611 118.739 4.64991C119 5.16941 119.18 5.72534 119.274 6.29883C119.378 6.92283 119.436 7.55357 119.448 8.18604C119.451 8.46924 119.451 8.77344 119.451 9.07618C119.459 9.45118 119.459 9.80811 119.459 10.168V31.0966C119.459 31.4599 119.459 31.8144 119.451 32.1718C119.451 32.497 119.451 32.7949 119.447 33.1015C119.436 33.7227 119.378 34.3422 119.276 34.955C119.183 35.5361 119.001 36.0993 118.736 36.625C118.473 37.1375 118.13 37.6051 117.721 38.0107C117.312 38.4245 116.84 38.7698 116.321 39.0332C115.796 39.2992 115.234 39.4846 114.653 39.583C114.035 39.684 113.41 39.7385 112.784 39.7461C112.491 39.7529 112.185 39.7568 111.887 39.7568L110.803 39.7588L9.11284 39.7568Z" fill="black"/>
</g>
<g id="&#60;Group&#62;">
<g id="&#60;Group&#62;_2">
<g id="&#60;Group&#62;_3">
<path id="&#60;Path&#62;" d="M25.437 20.9331C25.4477 20.0985 25.6694 19.2801 26.0814 18.5541C26.4935 17.8282 27.0824 17.2183 27.7935 16.7811C27.3418 16.1359 26.7458 15.605 26.053 15.2304C25.3602 14.8559 24.5896 14.648 23.8024 14.6234C22.1231 14.4471 20.4952 15.6282 19.6395 15.6282C18.7672 15.6282 17.4497 14.6409 16.031 14.6701C15.1133 14.6997 14.2189 14.9666 13.4351 15.4447C12.6512 15.9227 12.0045 16.5957 11.558 17.398C9.62404 20.7464 11.0666 25.6674 12.9192 28.374C13.8461 29.6994 14.9294 31.1798 16.3469 31.1273C17.7339 31.0698 18.252 30.2429 19.9263 30.2429C21.585 30.2429 22.0711 31.1273 23.5173 31.094C25.0057 31.0698 25.9434 29.7627 26.8378 28.4248C27.5038 27.4805 28.0162 26.4367 28.3562 25.3323C27.4915 24.9666 26.7536 24.3544 26.2345 23.5721C25.7153 22.7898 25.438 21.872 25.437 20.9331V20.9331Z" fill="white"/>
<path id="&#60;Path&#62;_2" d="M22.7055 12.8432C23.5171 11.869 23.9169 10.6168 23.8201 9.35254C22.5802 9.48276 21.435 10.0753 20.6125 11.0121C20.2103 11.4698 19.9023 12.0023 19.7061 12.579C19.5099 13.1558 19.4292 13.7656 19.4688 14.3735C20.0889 14.3799 20.7024 14.2455 21.2631 13.9804C21.8237 13.7153 22.3169 13.3265 22.7055 12.8432Z" fill="white"/>
</g>
</g>
<g id="Group_4">
<path id="Vector_3" d="M42.9707 27.7715H38.2373L37.1006 31.128H35.0957L39.5791 18.71H41.6621L46.1455 31.128H44.1064L42.9707 27.7715ZM38.7275 26.2227H42.4795L40.6299 20.7754H40.5782L38.7275 26.2227Z" fill="white"/>
<path id="Vector_4" d="M55.8282 26.6013C55.8282 29.4148 54.3223 31.2224 52.0498 31.2224C51.4742 31.2525 50.9017 31.1199 50.3979 30.8397C49.8941 30.5596 49.4794 30.1433 49.2012 29.6384H49.1582V34.1228H47.2998V22.0739H49.0987V23.5798H49.1328C49.4238 23.0773 49.8455 22.6631 50.3532 22.3813C50.8608 22.0995 51.4353 21.9605 52.0157 21.9792C54.3135 21.9792 55.8282 23.7956 55.8282 26.6013ZM53.918 26.6013C53.918 24.7683 52.9707 23.5632 51.5254 23.5632C50.1055 23.5632 49.1504 24.7937 49.1504 26.6013C49.1504 28.4255 50.1055 29.6472 51.5254 29.6472C52.9707 29.6472 53.918 28.4509 53.918 26.6013Z" fill="white"/>
<path id="Vector_5" d="M65.793 26.6013C65.793 29.4148 64.2871 31.2224 62.0147 31.2224C61.439 31.2525 60.8665 31.1199 60.3627 30.8397C59.8589 30.5596 59.4442 30.1433 59.166 29.6384H59.123V34.1227H57.2646V22.0739H59.0635V23.5798H59.0976C59.3886 23.0773 59.8103 22.6631 60.318 22.3813C60.8256 22.0994 61.4001 21.9605 61.9805 21.9792C64.2783 21.9792 65.793 23.7956 65.793 26.6013ZM63.8828 26.6013C63.8828 24.7683 62.9356 23.5632 61.4903 23.5632C60.0703 23.5632 59.1153 24.7937 59.1153 26.6013C59.1153 28.4255 60.0703 29.6472 61.4903 29.6472C62.9356 29.6472 63.8828 28.4509 63.8828 26.6013H63.8828Z" fill="white"/>
<path id="Vector_6" d="M72.3789 27.668C72.5166 28.8995 73.7129 29.708 75.3477 29.708C76.9141 29.708 78.041 28.8994 78.041 27.7891C78.041 26.8252 77.3614 26.2481 75.752 25.8525L74.1426 25.4648C71.8623 24.9141 70.8037 23.8477 70.8037 22.1172C70.8037 19.9746 72.6709 18.5029 75.3223 18.5029C77.9463 18.5029 79.7451 19.9746 79.8057 22.1172H77.9297C77.8174 20.8779 76.793 20.1299 75.2959 20.1299C73.7988 20.1299 72.7744 20.8867 72.7744 21.9883C72.7744 22.8662 73.4287 23.3828 75.0293 23.7783L76.3975 24.1142C78.9453 24.7168 80.0039 25.7402 80.0039 27.5566C80.0039 29.8799 78.1533 31.3349 75.21 31.3349C72.4561 31.3349 70.5967 29.914 70.4766 27.6679L72.3789 27.668Z" fill="white"/>
<path id="Vector_7" d="M84.0146 19.9316V22.0742H85.7363V23.5459H84.0146V28.5371C84.0146 29.3125 84.3594 29.6738 85.1162 29.6738C85.3206 29.6703 85.5247 29.6559 85.7275 29.6308V31.0937C85.3873 31.1573 85.0414 31.1861 84.6953 31.1797C82.8623 31.1797 82.1475 30.4912 82.1475 28.7353V23.5459H80.8311V22.0742H82.1474V19.9316H84.0146Z" fill="white"/>
<path id="Vector_8" d="M86.7334 26.6016C86.7334 23.7529 88.4111 21.9629 91.0273 21.9629C93.6523 21.9629 95.3223 23.7529 95.3223 26.6016C95.3223 29.458 93.6611 31.2402 91.0273 31.2402C88.3945 31.2402 86.7334 29.458 86.7334 26.6016ZM93.4287 26.6016C93.4287 24.6475 92.5332 23.4941 91.0273 23.4941C89.5215 23.4941 88.6269 24.6563 88.6269 26.6016C88.6269 28.5635 89.5215 29.708 91.0273 29.708C92.5332 29.708 93.4287 28.5635 93.4287 26.6016H93.4287Z" fill="white"/>
<path id="Vector_9" d="M96.8545 22.0739H98.627V23.6149H98.67C98.7899 23.1336 99.0718 22.7082 99.4684 22.4104C99.865 22.1125 100.352 21.9602 100.848 21.9791C101.062 21.9784 101.275 22.0016 101.484 22.0485V23.7867C101.214 23.7041 100.932 23.6662 100.649 23.6744C100.379 23.6635 100.11 23.7111 99.8604 23.814C99.6106 23.9169 99.386 24.0726 99.202 24.2705C99.018 24.4684 98.8791 24.7037 98.7946 24.9604C98.7102 25.2171 98.6823 25.489 98.7129 25.7574V31.1276H96.8545L96.8545 22.0739Z" fill="white"/>
<path id="Vector_10" d="M110.053 28.4688C109.803 30.1123 108.202 31.2402 106.154 31.2402C103.521 31.2402 101.886 29.4756 101.886 26.6445C101.886 23.8047 103.529 21.9629 106.076 21.9629C108.581 21.9629 110.156 23.6836 110.156 26.4287V27.0654H103.762V27.1777C103.732 27.5109 103.774 27.8466 103.884 28.1624C103.994 28.4783 104.17 28.7671 104.401 29.0096C104.631 29.2522 104.91 29.4429 105.22 29.5692C105.53 29.6955 105.863 29.7545 106.197 29.7422C106.636 29.7833 107.077 29.6816 107.454 29.4522C107.831 29.2227 108.123 28.8778 108.288 28.4687L110.053 28.4688ZM103.771 25.7666H108.297C108.314 25.467 108.268 25.1672 108.163 24.886C108.059 24.6048 107.897 24.3482 107.689 24.1325C107.48 23.9167 107.229 23.7464 106.952 23.6322C106.674 23.5179 106.376 23.4623 106.076 23.4688C105.774 23.4669 105.474 23.5251 105.194 23.6398C104.913 23.7546 104.659 23.9236 104.445 24.1373C104.23 24.3509 104.06 24.6049 103.945 24.8845C103.829 25.1642 103.77 25.464 103.771 25.7666V25.7666Z" fill="white"/>
</g>
</g>
</g>
<g id="&#60;Group&#62;_4">
<g id="Group_5">
<path id="Vector_11" d="M38.4941 9.36224C38.8838 9.33428 39.2747 9.39314 39.6388 9.53457C40.0029 9.67601 40.3311 9.89649 40.5997 10.1801C40.8683 10.4637 41.0706 10.8034 41.192 11.1747C41.3134 11.546 41.3509 11.9396 41.3018 12.3271C41.3018 14.2333 40.2715 15.3291 38.4941 15.3291H36.3389V9.36224H38.4941ZM37.2656 14.4852H38.3906C38.669 14.5019 38.9476 14.4562 39.2062 14.3516C39.4647 14.247 39.6967 14.0861 39.8852 13.8805C40.0737 13.6749 40.2139 13.4299 40.2958 13.1633C40.3777 12.8967 40.399 12.6152 40.3584 12.3392C40.3961 12.0644 40.3725 11.7846 40.2894 11.52C40.2063 11.2553 40.0657 11.0123 39.8776 10.8084C39.6896 10.6044 39.4587 10.4446 39.2016 10.3404C38.9445 10.2362 38.6676 10.1901 38.3906 10.2054H37.2656V14.4852Z" fill="white"/>
<path id="Vector_12" d="M42.3489 13.0756C42.3206 12.7797 42.3545 12.4811 42.4483 12.1991C42.5421 11.917 42.6939 11.6577 42.8938 11.4377C43.0938 11.2177 43.3375 11.0419 43.6093 10.9217C43.8812 10.8014 44.1752 10.7393 44.4724 10.7393C44.7697 10.7393 45.0637 10.8014 45.3356 10.9217C45.6074 11.0419 45.8511 11.2177 46.0511 11.4377C46.251 11.6577 46.4028 11.917 46.4966 12.1991C46.5904 12.4811 46.6243 12.7797 46.596 13.0756C46.6248 13.3719 46.5914 13.6708 46.4978 13.9534C46.4042 14.2359 46.2525 14.4957 46.0525 14.7161C45.8525 14.9365 45.6086 15.1127 45.3365 15.2332C45.0644 15.3537 44.7701 15.416 44.4724 15.416C44.1748 15.416 43.8805 15.3537 43.6084 15.2332C43.3362 15.1127 43.0924 14.9365 42.8924 14.7161C42.6924 14.4957 42.5407 14.2359 42.4471 13.9534C42.3535 13.6708 42.3201 13.3719 42.3489 13.0756V13.0756ZM45.6819 13.0756C45.6819 12.0996 45.2434 11.5288 44.4739 11.5288C43.7015 11.5288 43.2669 12.0996 43.2669 13.0756C43.2669 14.0595 43.7015 14.6259 44.4739 14.6259C45.2435 14.6259 45.6819 14.0556 45.6819 13.0756H45.6819Z" fill="white"/>
<path id="Vector_13" d="M52.2412 15.3291H51.3193L50.3887 12.0127H50.3184L49.3916 15.3291H48.4785L47.2373 10.8262H48.1387L48.9453 14.2622H49.0117L49.9375 10.8262H50.79L51.7158 14.2622H51.7861L52.5889 10.8262H53.4775L52.2412 15.3291Z" fill="white"/>
<path id="Vector_14" d="M54.5215 10.8257H55.377V11.5411H55.4434C55.556 11.2841 55.746 11.0688 55.9869 10.925C56.2278 10.7812 56.5075 10.7161 56.7871 10.7388C57.0062 10.7223 57.2262 10.7554 57.4308 10.8355C57.6354 10.9156 57.8194 11.0407 57.969 11.2015C58.1187 11.3624 58.2303 11.5548 58.2955 11.7646C58.3607 11.9745 58.3779 12.1963 58.3457 12.4136V15.3286H57.457V12.6368C57.457 11.9131 57.1426 11.5533 56.4854 11.5533C56.3366 11.5463 56.1881 11.5717 56.05 11.6275C55.912 11.6833 55.7876 11.7683 55.6855 11.8767C55.5834 11.9851 55.5059 12.1143 55.4584 12.2554C55.4108 12.3966 55.3944 12.5463 55.4102 12.6944V15.3287H54.5215L54.5215 10.8257Z" fill="white"/>
<path id="Vector_15" d="M59.7617 9.06836H60.6504V15.3291H59.7617V9.06836Z" fill="white"/>
<path id="Vector_16" d="M61.886 13.0757C61.8577 12.7798 61.8916 12.4812 61.9854 12.1991C62.0793 11.917 62.2311 11.6577 62.4311 11.4377C62.631 11.2177 62.8747 11.0419 63.1466 10.9217C63.4185 10.8014 63.7125 10.7393 64.0098 10.7393C64.3071 10.7393 64.6011 10.8014 64.8729 10.9217C65.1448 11.0419 65.3885 11.2177 65.5885 11.4377C65.7885 11.6577 65.9402 11.917 66.0341 12.1991C66.128 12.4812 66.1618 12.7798 66.1336 13.0757C66.1624 13.372 66.1289 13.6709 66.0353 13.9535C65.9416 14.236 65.79 14.4958 65.5899 14.7162C65.3899 14.9366 65.146 15.1127 64.8739 15.2333C64.6017 15.3538 64.3074 15.4161 64.0098 15.4161C63.7121 15.4161 63.4178 15.3538 63.1457 15.2333C62.8735 15.1127 62.6296 14.9366 62.4296 14.7162C62.2296 14.4958 62.0779 14.236 61.9843 13.9535C61.8907 13.6709 61.8572 13.372 61.886 13.0757V13.0757ZM65.219 13.0757C65.219 12.0996 64.7805 11.5289 64.011 11.5289C63.2385 11.5289 62.804 12.0997 62.804 13.0757C62.804 14.0596 63.2386 14.626 64.011 14.626C64.7805 14.626 65.219 14.0557 65.219 13.0757H65.219Z" fill="white"/>
<path id="Vector_17" d="M67.0684 14.0557C67.0684 13.2451 67.6719 12.7778 68.7432 12.7114L69.9629 12.6411V12.2524C69.9629 11.7768 69.6484 11.5083 69.041 11.5083C68.5449 11.5083 68.2012 11.6904 68.1025 12.0088H67.2422C67.333 11.2353 68.0606 10.7393 69.082 10.7393C70.2109 10.7393 70.8477 11.3013 70.8477 12.2524V15.3291H69.9922V14.6963H69.9219C69.7792 14.9233 69.5788 15.1083 69.3411 15.2325C69.1035 15.3568 68.8372 15.4157 68.5693 15.4033C68.3803 15.423 68.1892 15.4028 68.0085 15.3441C67.8277 15.2854 67.6613 15.1895 67.5199 15.0625C67.3784 14.9355 67.2652 14.7803 67.1874 14.6069C67.1097 14.4335 67.0691 14.2457 67.0684 14.0557V14.0557ZM69.9629 13.6709V13.2944L68.8633 13.3647C68.2432 13.4062 67.9619 13.6172 67.9619 14.0141C67.9619 14.4194 68.3135 14.6553 68.7969 14.6553C68.9386 14.6696 69.0816 14.6553 69.2176 14.6132C69.3536 14.5711 69.4798 14.5021 69.5886 14.4103C69.6974 14.3184 69.7866 14.2056 69.8509 14.0786C69.9152 13.9516 69.9533 13.8129 69.9629 13.6709V13.6709Z" fill="white"/>
<path id="Vector_18" d="M72.0156 13.0757C72.0156 11.6528 72.7471 10.7515 73.8848 10.7515C74.1662 10.7385 74.4455 10.8059 74.69 10.9458C74.9345 11.0857 75.1342 11.2923 75.2656 11.5415H75.332V9.06836H76.2207V15.3291H75.3691V14.6177H75.2988C75.1572 14.8652 74.9506 15.0692 74.7014 15.2077C74.4521 15.3462 74.1697 15.4138 73.8848 15.4033C72.7393 15.4034 72.0156 14.502 72.0156 13.0757ZM72.9336 13.0757C72.9336 14.0308 73.3838 14.6055 74.1368 14.6055C74.8858 14.6055 75.3487 14.0225 75.3487 13.0796C75.3487 12.1411 74.8809 11.5498 74.1368 11.5498C73.3887 11.5498 72.9336 12.1284 72.9336 13.0757H72.9336Z" fill="white"/>
<path id="Vector_19" d="M79.8977 13.0756C79.8694 12.7797 79.9033 12.4811 79.9971 12.1991C80.091 11.917 80.2427 11.6577 80.4427 11.4377C80.6426 11.2177 80.8863 11.0419 81.1582 10.9217C81.43 10.8014 81.724 10.7393 82.0213 10.7393C82.3185 10.7393 82.6125 10.8014 82.8844 10.9217C83.1562 11.0419 83.3999 11.2177 83.5999 11.4377C83.7998 11.6577 83.9516 11.917 84.0454 12.1991C84.1393 12.4811 84.1731 12.7797 84.1448 13.0756C84.1737 13.3719 84.1402 13.6708 84.0466 13.9534C83.953 14.2359 83.8014 14.4957 83.6014 14.7161C83.4014 14.9365 83.1575 15.1127 82.8854 15.2332C82.6132 15.3537 82.3189 15.416 82.0213 15.416C81.7237 15.416 81.4293 15.3537 81.1572 15.2332C80.8851 15.1127 80.6412 14.9365 80.4412 14.7161C80.2412 14.4957 80.0895 14.2359 79.9959 13.9534C79.9023 13.6708 79.8689 13.3719 79.8977 13.0756V13.0756ZM83.2307 13.0756C83.2307 12.0996 82.7923 11.5288 82.0227 11.5288C81.2503 11.5288 80.8157 12.0996 80.8157 13.0756C80.8157 14.0595 81.2503 14.6259 82.0227 14.6259C82.7923 14.6259 83.2307 14.0556 83.2307 13.0756Z" fill="white"/>
<path id="Vector_20" d="M85.3379 10.8257H86.1934V11.5411H86.2598C86.3724 11.2841 86.5624 11.0688 86.8033 10.925C87.0442 10.7812 87.3239 10.7161 87.6035 10.7388C87.8226 10.7223 88.0426 10.7554 88.2472 10.8355C88.4518 10.9156 88.6358 11.0407 88.7855 11.2015C88.9351 11.3624 89.0467 11.5548 89.1119 11.7646C89.1771 11.9745 89.1943 12.1963 89.1621 12.4136V15.3286H88.2734V12.6368C88.2734 11.9131 87.959 11.5533 87.3018 11.5533C87.153 11.5463 87.0045 11.5717 86.8664 11.6275C86.7284 11.6833 86.604 11.7683 86.5019 11.8767C86.3998 11.9851 86.3223 12.1143 86.2748 12.2554C86.2273 12.3966 86.2108 12.5463 86.2266 12.6944V15.3287H85.3379V10.8257Z" fill="white"/>
<path id="Vector_21" d="M94.1826 9.70508V10.8467H95.1582V11.5952H94.1826V13.9106C94.1826 14.3823 94.377 14.5889 94.8193 14.5889C94.9326 14.5885 95.0457 14.5817 95.1582 14.5684V15.3086C94.9986 15.3371 94.8369 15.3523 94.6748 15.354C93.6865 15.354 93.293 15.0063 93.293 14.1382V11.5952H92.5781V10.8466H93.293V9.70508H94.1826Z" fill="white"/>
<path id="Vector_22" d="M96.373 9.06836H97.2539V11.5498H97.3242C97.4423 11.2905 97.6376 11.0739 97.8833 10.9296C98.129 10.7852 98.4132 10.7201 98.6972 10.7432C98.9152 10.7313 99.1331 10.7677 99.3353 10.8497C99.5376 10.9318 99.7193 11.0575 99.8674 11.2178C100.016 11.3781 100.126 11.5692 100.192 11.7773C100.258 11.9855 100.277 12.2055 100.248 12.4219V15.3291H99.3584V12.6411C99.3584 11.9219 99.0234 11.5576 98.3955 11.5576C98.2428 11.5451 98.0892 11.5661 97.9454 11.6191C97.8016 11.6722 97.6712 11.756 97.5632 11.8648C97.4552 11.9735 97.3723 12.1045 97.3202 12.2486C97.2681 12.3928 97.2482 12.5466 97.2618 12.6992V15.3291H96.3731L96.373 9.06836Z" fill="white"/>
<path id="Vector_23" d="M105.429 14.1134C105.309 14.5249 105.047 14.8809 104.69 15.119C104.334 15.3572 103.905 15.4623 103.478 15.4161C103.182 15.4239 102.887 15.3671 102.614 15.2496C102.342 15.132 102.098 14.9566 101.9 14.7355C101.702 14.5143 101.555 14.2528 101.468 13.969C101.381 13.6851 101.358 13.3859 101.398 13.0919C101.359 12.797 101.383 12.4971 101.469 12.2124C101.556 11.9277 101.703 11.6649 101.899 11.4419C102.096 11.2188 102.339 11.0406 102.61 10.9194C102.882 10.7982 103.177 10.7368 103.474 10.7393C104.727 10.7393 105.483 11.5953 105.483 13.0093V13.3194H102.303V13.3692C102.289 13.5345 102.31 13.7008 102.364 13.8575C102.418 14.0143 102.505 14.158 102.618 14.2795C102.731 14.4009 102.868 14.4974 103.02 14.5628C103.172 14.6282 103.337 14.6611 103.503 14.6592C103.715 14.6847 103.931 14.6465 104.121 14.5493C104.312 14.4521 104.47 14.3003 104.574 14.1133L105.429 14.1134ZM102.303 12.6622H104.578C104.589 12.5111 104.568 12.3593 104.517 12.2165C104.467 12.0738 104.386 11.9433 104.282 11.8335C104.177 11.7236 104.051 11.6368 103.911 11.5786C103.771 11.5205 103.621 11.4922 103.469 11.4957C103.316 11.4938 103.163 11.5226 103.021 11.5806C102.878 11.6385 102.749 11.7244 102.64 11.8331C102.532 11.9418 102.446 12.0712 102.388 12.2135C102.33 12.3559 102.301 12.5085 102.303 12.6622H102.303Z" fill="white"/>
</g>
</g>
</g>
</svg>
