<svg width="36" height="40" viewBox="0 0 36 40" fill="none" xmlns="http://www.w3.org/2000/svg">
<g id="fa6-brands:instagram" clip-path="url(#clip0_28_594)">
<path id="Vector" d="M18.0078 11.0156C13.0391 11.0156 9.03125 15.0234 9.03125 19.9922C9.03125 24.9609 13.0391 28.9687 18.0078 28.9687C22.9766 28.9687 26.9844 24.9609 26.9844 19.9922C26.9844 15.0234 22.9766 11.0156 18.0078 11.0156ZM18.0078 25.8281C14.7969 25.8281 12.1719 23.2109 12.1719 19.9922C12.1719 16.7734 14.7891 14.1562 18.0078 14.1562C21.2266 14.1562 23.8438 16.7734 23.8438 19.9922C23.8438 23.2109 21.2188 25.8281 18.0078 25.8281ZM29.4453 10.6484C29.4453 11.8125 28.5078 12.7422 27.3516 12.7422C26.1875 12.7422 25.2578 11.8047 25.2578 10.6484C25.2578 9.49219 26.1953 8.55469 27.3516 8.55469C28.5078 8.55469 29.4453 9.49219 29.4453 10.6484ZM35.3906 12.7734C35.2578 9.96875 34.6172 7.48438 32.5625 5.4375C30.5156 3.39062 28.0313 2.75 25.2266 2.60937C22.3359 2.44531 13.6719 2.44531 10.7812 2.60937C7.98438 2.74219 5.5 3.38281 3.44531 5.42969C1.39063 7.47656 0.757812 9.96094 0.617187 12.7656C0.453125 15.6562 0.453125 24.3203 0.617187 27.2109C0.75 30.0156 1.39063 32.5 3.44531 34.5469C5.5 36.5938 7.97656 37.2344 10.7812 37.375C13.6719 37.5391 22.3359 37.5391 25.2266 37.375C28.0313 37.2422 30.5156 36.6016 32.5625 34.5469C34.6094 32.5 35.25 30.0156 35.3906 27.2109C35.5547 24.3203 35.5547 15.6641 35.3906 12.7734ZM31.6562 30.3125C31.0469 31.8438 29.8672 33.0234 28.3281 33.6406C26.0234 34.5547 20.5547 34.3438 18.0078 34.3438C15.4609 34.3438 9.98438 34.5469 7.6875 33.6406C6.15625 33.0312 4.97656 31.8516 4.35938 30.3125C3.44531 28.0078 3.65625 22.5391 3.65625 19.9922C3.65625 17.4453 3.45313 11.9688 4.35938 9.67188C4.96875 8.14062 6.14844 6.96094 7.6875 6.34375C9.99219 5.42969 15.4609 5.64062 18.0078 5.64062C20.5547 5.64062 26.0313 5.4375 28.3281 6.34375C29.8594 6.95312 31.0391 8.13281 31.6562 9.67188C32.5703 11.9766 32.3594 17.4453 32.3594 19.9922C32.3594 22.5391 32.5703 28.0156 31.6562 30.3125Z" fill="#DED5BF"/>
</g>
<defs>
<clipPath id="clip0_28_594">
<rect width="35" height="40" fill="white" transform="translate(0.5)"/>
</clipPath>
</defs>
</svg>
